FILE "36 Big Ideas [B0716VZHDZ].m4b" MP3
TRACK 1 AUDIO
  TITLE "Chapter 1"
  INDEX 01 0:00:00
TRACK 2 AUDIO
  TITLE "Chapter 2"
  INDEX 01 33:32:04
TRACK 3 AUDIO
  TITLE "Chapter 3"
  INDEX 01 63:42:35
TRACK 4 AUDIO
  TITLE "Chapter 4"
  INDEX 01 93:35:24
TRACK 5 AUDIO
  TITLE "Chapter 5"
  INDEX 01 124:51:30
TRACK 6 AUDIO
  TITLE "Chapter 6"
  INDEX 01 156:49:17
TRACK 7 AUDIO
  TITLE "Chapter 7"
  INDEX 01 185:46:30
TRACK 8 AUDIO
  TITLE "Chapter 8"
  INDEX 01 217:30:58
TRACK 9 AUDIO
  TITLE "Chapter 9"
  INDEX 01 249:38:02
TRACK 10 AUDIO
  TITLE "Chapter 10"
  INDEX 01 281:45:49
TRACK 11 AUDIO
  TITLE "Chapter 11"
  INDEX 01 311:50:47
TRACK 12 AUDIO
  TITLE "Chapter 12"
  INDEX 01 343:45:26
TRACK 13 AUDIO
  TITLE "Chapter 13"
  INDEX 01 374:41:41
TRACK 14 AUDIO
  TITLE "Chapter 14"
  INDEX 01 405:31:40
TRACK 15 AUDIO
  TITLE "Chapter 15"
  INDEX 01 434:24:15
TRACK 16 AUDIO
  TITLE "Chapter 16"
  INDEX 01 465:52:58
TRACK 17 AUDIO
  TITLE "Chapter 17"
  INDEX 01 497:51:16
TRACK 18 AUDIO
  TITLE "Chapter 18"
  INDEX 01 530:36:41
TRACK 19 AUDIO
  TITLE "Chapter 19"
  INDEX 01 561:51:59
TRACK 20 AUDIO
  TITLE "Chapter 20"
  INDEX 01 596:08:74
TRACK 21 AUDIO
  TITLE "Chapter 21"
  INDEX 01 626:55:12
TRACK 22 AUDIO
  TITLE "Chapter 22"
  INDEX 01 657:52:43
TRACK 23 AUDIO
  TITLE "Chapter 23"
  INDEX 01 688:30:46
TRACK 24 AUDIO
  TITLE "Chapter 24"
  INDEX 01 720:11:06
TRACK 25 AUDIO
  TITLE "Chapter 25"
  INDEX 01 749:46:42
TRACK 26 AUDIO
  TITLE "Chapter 26"
  INDEX 01 778:54:14
TRACK 27 AUDIO
  TITLE "Chapter 27"
  INDEX 01 809:06:38
TRACK 28 AUDIO
  TITLE "Chapter 28"
  INDEX 01 838:48:55
TRACK 29 AUDIO
  TITLE "Chapter 29"
  INDEX 01 871:05:73
TRACK 30 AUDIO
  TITLE "Chapter 30"
  INDEX 01 903:06:48
TRACK 31 AUDIO
  TITLE "Chapter 31"
  INDEX 01 931:14:30
TRACK 32 AUDIO
  TITLE "Chapter 32"
  INDEX 01 963:10:18
TRACK 33 AUDIO
  TITLE "Chapter 33"
  INDEX 01 995:44:18
TRACK 34 AUDIO
  TITLE "Chapter 34"
  INDEX 01 1027:18:01
TRACK 35 AUDIO
  TITLE "Chapter 35"
  INDEX 01 1058:45:11
TRACK 36 AUDIO
  TITLE "Chapter 36"
  INDEX 01 1089:25:38
